<svg width="113" height="19" viewBox="0 0 113 19" fill="none" xmlns="http://www.w3.org/2000/svg">
<path fill-rule="evenodd" clip-rule="evenodd" d="M88.2268 5.47855C89.511 5.47855 90.7181 6.11437 91.2832 6.8011V0.697266H94.3654V18.1186H91.2832V16.847C90.9236 17.4828 89.7934 18.322 88.2268 18.322C84.4511 18.322 82.5247 15.7534 82.5247 11.9385C82.5247 8.09819 84.4511 5.47855 88.2268 5.47855ZM88.6633 15.6771C90.2558 15.6771 91.5401 14.3546 91.5401 11.9131C91.5401 9.44606 90.2558 8.14898 88.6633 8.14898C87.0709 8.14898 85.7867 9.47152 85.7867 11.9131C85.761 14.38 87.0452 15.6771 88.6633 15.6771Z" fill="white"/>
<path fill-rule="evenodd" clip-rule="evenodd" d="M0.436689 8.93754C0.847543 6.90293 2.64547 5.47867 5.21393 5.47867C8.19338 5.47867 10.4793 6.69939 10.4793 10.6924V18.0678H7.96224L7.65397 16.491C6.78072 17.5592 5.5992 18.2712 3.80128 18.2712C1.6695 18.2712 0 16.9488 0 14.5073C0 12.0657 2.2089 10.4635 5.34236 10.4635H7.42284V9.90393C7.42284 8.50513 6.36974 8.07285 5.21393 8.07285C4.34068 8.07285 3.44172 8.35251 3.05645 9.49698L0.436689 8.93754ZM4.49481 15.6772C5.90747 15.6772 7.37154 14.7361 7.37154 13.1339V12.9051H5.31677C3.98112 12.8541 3.18487 13.3882 3.18487 14.4563C3.21058 15.0414 3.64727 15.6772 4.49481 15.6772Z" fill="white"/>
<path fill-rule="evenodd" clip-rule="evenodd" d="M60.5131 8.93754C60.9239 6.90293 62.7218 5.47867 65.2903 5.47867C68.2697 5.47867 70.5556 6.69939 70.5556 10.6924V18.0678H68.0386L67.7303 16.491C66.8571 17.5592 65.6756 18.2712 63.8776 18.2712C61.7459 18.2712 60.0764 16.9488 60.0764 14.5073C60.0764 12.0657 62.2853 10.4635 65.4187 10.4635H67.4992V9.90393C67.4992 8.50513 66.4461 8.07285 65.2903 8.07285C64.417 8.07285 63.5181 8.35251 63.1328 9.49698L60.5131 8.93754ZM64.5712 15.6772C65.9838 15.6772 67.4479 14.7361 67.4479 13.1339V12.9051H65.3931C64.0575 12.9051 63.2612 13.3882 63.2612 14.4818C63.2869 15.0414 63.7236 15.6772 64.5712 15.6772Z" fill="white"/>
<path d="M73.3552 5.65675V18.0933L76.4374 18.0424V13.6426C76.4374 9.6496 78.0042 8.17456 79.8021 8.17456C80.3158 8.17456 80.7268 8.30172 81.0863 8.53059L81.6513 5.70754C81.1376 5.55492 80.7011 5.47867 80.136 5.47867C78.7233 5.47867 77.3107 6.2162 76.4374 7.69136V5.65675H73.3552Z" fill="white"/>
<path d="M103.663 9.14095L105.512 7.46237C104.742 6.26699 103.252 5.42776 101.608 5.45322C99.1683 5.45322 97.6015 7.15713 97.6015 9.06458C97.6015 10.972 98.7573 11.8367 100.119 12.3963C100.484 12.547 100.852 12.6749 101.202 12.7961C102.325 13.1863 103.252 13.5082 103.252 14.3037C103.252 15.2193 102.636 15.6516 101.685 15.6516C100.453 15.6516 99.605 14.7869 99.1683 13.5917L96.7283 14.9141C97.3447 16.4146 99.1169 18.2458 101.711 18.2458C104.434 18.2458 106.155 16.3892 106.155 14.1256C106.155 11.8173 104.063 11.1243 102.384 10.5681L102.374 10.5647C102.114 10.4788 101.865 10.3959 101.634 10.3107C100.864 10.0564 100.427 9.67493 100.427 9.11549C100.427 8.42876 100.992 8.07273 101.583 8.07273C102.25 8.07273 103.098 8.37797 103.663 9.14095Z" fill="white"/>
<path d="M41.2752 5.68209L39.0664 14.202L36.9345 5.68209H34.0579L31.9517 14.202L30.2052 9.24265L29.9996 9.85301L28.9979 13.0321L30.5904 18.0932H33.3386L35.4961 10.0819L37.6537 18.0932H40.3762L44.383 5.68209H41.2752Z" fill="white"/>
<path d="M53.9378 14.202L56.1722 5.68209H59.2801L55.2476 18.0932H52.5251L50.3675 10.0819L48.21 18.0932H45.4874L43.8693 13.0321L44.871 9.85301L45.0766 9.24265L46.8488 14.202L48.9292 5.68209H51.8059L53.9378 14.202Z" fill="white"/>
<path d="M29.5116 5.68209L25.5048 18.0678H22.7822L20.6247 10.0565L18.4672 18.1186H15.7446L11.7378 5.733H14.8714L17.1059 14.2275L19.2378 5.733H22.0887L24.2206 14.2275L26.4551 5.733L29.5116 5.68209Z" fill="white"/>
<path d="M112.242 16.1604C112.242 14.965 111.369 14.1003 110.161 14.1003C108.98 14.1003 108.081 14.965 108.081 16.1604C108.081 17.3556 108.954 18.2204 110.161 18.2204C111.369 18.2204 112.242 17.3556 112.242 16.1604Z" fill="white"/>
</svg>
