<svg width="57" height="19" viewBox="0 0 57 19" fill="none" xmlns="http://www.w3.org/2000/svg">
<path d="M48.6561 3.03956C48.8732 3.03956 49.0748 3.09086 49.2454 3.21055C49.633 3.43284 49.8811 3.89451 49.8811 4.40748V8.25475H53.2617C53.944 8.25475 54.4867 8.85321 54.4867 9.60557C54.4867 10.3579 53.944 10.9564 53.2617 10.9564H49.8811V14.6156C49.8811 15.3679 49.3384 15.9664 48.6561 15.9664C48.5165 15.9664 39.2434 15.9664 39.2434 15.9664C38.5611 15.9664 38.0184 15.3679 38.0184 14.6156V9.53717C38.0494 8.81902 38.5921 8.23765 39.2434 8.23765H47.4311V5.7412H37.9873L33.5058 14.9234C33.4283 15.3337 33.1957 15.6928 32.839 15.8809C32.6685 15.9664 32.4824 16.0177 32.3118 16.0177C31.8931 16.0177 31.4744 15.7783 31.2573 15.3508C31.2108 15.2824 31.1798 15.1969 31.1488 15.1114L27.6132 7.4511L24.0311 14.9404C23.876 15.3337 23.6434 15.6928 23.2868 15.898C23.1162 15.9835 22.9301 16.0348 22.7595 16.0348C22.3409 16.0348 21.9222 15.7954 21.7051 15.3679C21.6585 15.2995 21.6275 15.214 21.5965 15.1285L17.2701 5.7754H10.0439V8.27185H15.89C16.5723 8.27185 17.115 8.87031 17.115 9.62267C17.115 10.375 16.5723 10.9735 15.89 10.9735H10.0439V14.7011C10.0439 15.4534 9.50112 16.0519 8.81881 16.0519C8.13651 16.0519 7.59377 15.4534 7.59377 14.7011V10.9735H4.15123C3.46893 10.9735 2.92618 10.375 2.92618 9.62267C2.92618 8.87031 3.46893 8.27185 4.15123 8.27185H7.53174V4.42458C7.53174 3.91161 7.79536 3.46704 8.16752 3.22765C8.3381 3.12506 8.53969 3.05666 8.75679 3.05666H17.9214C18.123 3.05666 18.3091 3.10796 18.4796 3.21055C18.7432 3.33025 18.9603 3.55253 19.0844 3.86032L22.713 11.7087L26.3416 4.21939C26.5277 3.80902 26.6208 3.43284 27.0239 3.22765C27.1945 3.14216 27.3806 3.09086 27.5512 3.09086C27.8613 3.09086 28.1559 3.21055 28.373 3.44994C28.5901 3.63803 28.6987 3.77482 28.8538 4.0997L32.2808 11.7087L36.1265 3.84322C36.2195 3.65513 36.3591 3.50124 36.5297 3.38154C36.7468 3.19345 37.0104 3.07376 37.3205 3.07376H48.6561M40.4219 13.2477H47.4311V10.9564H40.4219V13.2477ZM48.6561 0.269531H37.3205C36.4987 0.269531 35.6923 0.577313 35.041 1.12448C34.5913 1.46646 34.2192 1.92813 33.9555 2.4411L33.94 2.4753L33.9245 2.5095L32.3583 5.7241C32.3583 5.7241 30.544 1.79134 30.0013 1.31257C29.319 0.662806 28.4506 0.303729 27.5512 0.303729C26.9929 0.303729 26.4347 0.440519 25.923 0.714103C24.946 1.22707 24.4033 2.18462 23.9536 3.29605L22.775 5.7241L21.3329 2.61209C20.9607 1.77424 20.325 1.09028 19.5496 0.697006C19.0379 0.423422 18.4796 0.286629 17.9214 0.286629H8.75679C8.13651 0.286629 7.51623 0.45762 6.97349 0.7825C5.76395 1.50066 5.01962 2.90277 5.01962 4.40748V5.48472H4.15123C2.08881 5.48472 0.414062 7.33141 0.414062 9.60557C0.414062 11.8797 2.08881 13.7264 4.15123 13.7264H5.01962V14.684C5.01962 16.9581 6.69437 18.8048 8.75679 18.8048C10.8192 18.8048 12.494 16.9581 12.494 14.684V13.7264H15.8124C16.5258 13.7264 17.2081 13.5041 17.7818 13.1109L19.255 16.2913C19.3325 16.4794 19.41 16.6503 19.5031 16.8213C20.1854 18.0525 21.3949 18.8048 22.6975 18.8048C23.2558 18.8048 23.814 18.668 24.3257 18.3944C25.2406 17.9157 26.0315 17.0949 26.4347 16.0519L27.5047 13.4357L28.8383 16.3084C28.9158 16.4965 28.9933 16.6674 29.0864 16.8384C29.7687 18.0696 30.9782 18.8219 32.2808 18.8219C32.839 18.8219 33.3973 18.6851 33.909 18.4115C34.7619 17.9499 35.4287 17.1462 35.7698 16.1887C36.3281 17.6934 37.6772 18.7535 39.2434 18.7535H48.6561C50.7185 18.7535 52.3933 16.9752 52.3933 14.7011V13.7435H53.2617C55.3241 13.7435 56.9988 11.8968 56.9988 9.62267C56.9988 7.34851 55.3241 5.50182 53.2617 5.50182H52.3933V4.42458C52.3933 2.90277 51.6489 1.51775 50.4394 0.799598C49.8967 0.440519 49.2764 0.269531 48.6561 0.269531Z" fill="white"/>
</svg>
